<?xml version="1.0" encoding="UTF-8"?>
<svg width="31px" height="56px" viewBox="0 0 31 56" version="1.1" xmlns="http://www.w3.org/2000/svg" xmlns:xlink="http://www.w3.org/1999/xlink">
    <!-- Generator: Sketch 49 (51002) - http://www.bohemiancoding.com/sketch -->
    <title>phone</title>
    <desc>Created with Sketch.</desc>
    <defs></defs>
    <g id="Page-1" stroke="none" stroke-width="1" fill="none" fill-rule="evenodd">
        <g id="Desktop-HD" transform="translate(-1099.000000, -1238.000000)" fill="#549987" fill-rule="nonzero">
            <g id="phone" transform="translate(1099.000000, 1238.000000)">
                <path d="M27.0162806,0 L3.98371943,0 C1.77940798,0 0,1.82843816 0,4.07929451 L0,51.9247868 C0,54.1736025 1.77940798,56 3.98371943,56 L27.0162806,56 C29.2166023,56 31,54.1736025 31,51.9247868 L31,4.07929451 C31,1.82843816 29.2166023,0 27.0162806,0 Z M9.81666667,2.47737045 L21.187323,2.47737045 C21.4745817,2.47737045 21.7079794,2.91611399 21.7079794,3.45893156 C21.7079794,4.00174914 21.4745817,4.44253334 21.187323,4.44253334 L9.81666667,4.44253334 C9.52741313,4.44253334 9.29800515,4.00174914 9.29800515,3.45893156 C9.29800515,2.91611399 9.52741313,2.47737045 9.81666667,2.47737045 Z M15.5019949,51.9737628 C14.0996139,51.9737628 12.9585586,50.806501 12.9585586,49.369871 C12.9585586,47.933241 14.0996139,46.7700605 15.5019949,46.7700605 C16.9003861,46.7700605 18.0414414,47.933241 18.0414414,49.369871 C18.0414414,50.806501 16.9003861,51.9737628 15.5019949,51.9737628 Z M28.0157014,43.0580861 L2.98629344,43.0580861 L2.98629344,6.88317178 L28.0157014,6.88317178 L28.0157014,43.0580861 Z" id="Shape"></path>
            </g>
        </g>
    </g>
</svg>