<?xml version="1.0" encoding="UTF-8"?>
<svg width="103px" height="47px" viewBox="0 0 103 47" version="1.1" xmlns="http://www.w3.org/2000/svg" xmlns:xlink="http://www.w3.org/1999/xlink">
    <!-- Generator: Sketch 49 (51002) - http://www.bohemiancoding.com/sketch -->
    <title>sneaker</title>
    <desc>Created with Sketch.</desc>
    <defs></defs>
    <g id="Page-1" stroke="none" stroke-width="1" fill="none" fill-rule="evenodd">
        <g id="Desktop-HD" transform="translate(-655.000000, -1249.000000)" fill="#83B3CB" fill-rule="nonzero">
            <g id="sneaker" transform="translate(655.000000, 1249.000000)">
                <path d="M102.79922,29.5619957 C102.79922,24.3632735 98.8908421,20.0063333 93.708115,19.4272692 C91.1399415,19.1404487 88.5978694,18.6642222 86.1525731,18.012047 C76.6809903,15.485094 50.927577,4.08839744 43.26,0.655589744 C40.685,-0.497316239 37.7293216,0.0506153846 35.7295556,2.05132906 L26.7595205,11.0247137 C25.8050136,11.9795769 24.4164211,12.3075726 23.135848,11.8805556 L13.0516862,8.51784615 C12.3053879,8.26898718 11.8044425,7.57342735 11.8044425,6.78688034 L11.8044425,5.82759829 C11.8044425,3.99258974 10.3122476,2.49983761 8.47792398,2.49983761 L6.55204483,2.49983761 C3.8961306,2.49983761 1.68514425,4.57707692 1.51849708,7.22835897 L0.0096374269,31.2349145 C-0.0849298246,33.0367821 0.521224172,34.7522821 1.71726901,36.0907778 L1.71726901,43.613188 C1.71726901,45.4481966 3.20946394,46.9409487 5.04378752,46.9409487 L61.7012164,46.9409487 C78.511499,46.9409487 91.8063294,43.6053547 96.7418967,42.1712521 C98.0931442,41.7785812 99.2275497,40.8341624 99.854384,39.5800256 L102.629361,34.0282009 C102.743604,33.7998291 102.797413,33.5533803 102.797413,33.3081368 L102.799421,33.3081368 L102.799421,29.5619957 L102.79922,29.5619957 L102.79922,29.5619957 Z M85.3233528,21.1232863 C87.9226472,21.8170385 90.6239376,22.3229915 93.3509279,22.627688 C93.5543177,22.6503846 93.7546959,22.6827222 93.9522632,22.7218889 C93.3693996,22.9106923 92.7054211,23.1135556 91.9466745,23.3270641 C88.7323918,24.2315128 83.2105478,25.4964957 75.1564698,26.3850769 C73.768078,26.5381282 72.4850955,27.0942949 71.4466628,27.9929188 L69.0599942,30.0583077 C68.9427388,30.0207479 68.8202632,29.9948376 68.6923665,29.9847949 C64.3589376,29.6513761 59.8160955,29.1847906 55.3122047,28.6507179 L67.615384,21.2773419 C73.0649474,21.3243419 76.7460429,20.572141 78.8046374,19.0012564 C81.3523314,19.9225769 83.5858051,20.6597137 85.3233528,21.1232863 Z M39.9874912,26.5903504 C38.2832729,26.3372735 36.6374815,26.0858034 35.0683879,25.8405598 L45.6010916,19.5285 C46.3431735,19.0836068 47.2169669,18.9235256 48.0612456,19.0771795 C49.2416296,19.2922949 50.3959123,19.491141 51.5261014,19.6753248 L39.9874912,26.5903504 Z M56.5560351,20.4150726 C58.4040117,20.655094 60.1664561,20.8463077 61.835538,20.9875085 L50.1250604,28.0055726 C48.403575,27.7816197 46.7029708,27.5514402 45.0369006,27.3188504 L56.5560351,20.4150726 Z M65.6961306,32.969094 L61.2970468,36.7758932 C55.9324133,36.633688 51.0837836,36.3107137 46.3562242,35.9953718 C40.2601501,35.588641 33.9620916,35.1700598 26.5952827,35.1363162 L22.0460156,26.9444573 C29.8033411,28.3096667 48.8752066,31.4976325 65.6961306,32.969094 Z M4.73016959,7.43021795 C4.79120663,6.47113675 5.5907115,5.71994017 6.5514425,5.71994017 L8.47732164,5.71994017 C8.53655166,5.71994017 8.58453801,5.76794444 8.58453801,5.82719658 L8.58453801,6.78647863 C8.58453801,8.96153419 9.97052047,10.8849188 12.0331306,11.5728462 L22.1170916,14.9355556 C24.5619864,15.7504231 27.2126803,15.1249615 29.0351579,13.3018034 L38.005193,4.3284188 C39.0526608,3.28055983 40.5990663,2.99253419 41.9444912,3.59509829 C42.5466296,3.8646453 43.2023762,4.15749145 43.9028967,4.46961966 L42.2743723,6.2403547 C41.6726355,6.89473932 41.7147992,7.91347436 42.3689396,8.51563675 C42.6781404,8.80024786 43.0688577,8.9406453 43.4583704,8.9406453 C43.8926569,8.9406453 44.3257388,8.76570085 44.6431715,8.42063248 L47.0097622,5.84728205 C47.8875712,6.23493162 48.8085478,6.64025641 49.76446,7.05944017 L48.384501,8.55982479 C47.7827641,9.2142094 47.8249279,10.2329444 48.4790682,10.8351068 C48.788269,11.1197179 49.1789864,11.2601154 49.568499,11.2601154 C50.0027856,11.2601154 50.4358674,11.0851709 50.7533002,10.7401026 L52.8855809,8.4214359 C53.7894912,8.81410684 54.7142827,9.21400855 55.6539318,9.61873077 L54.4946296,10.8792949 C53.8928928,11.5336795 53.9350565,12.5524145 54.5891969,13.1545769 C54.8983977,13.439188 55.289115,13.5795855 55.6786277,13.5795855 C56.1129142,13.5795855 56.5459961,13.404641 56.8634288,13.0595726 L58.7919181,10.9626496 C59.7138986,11.3553205 60.643308,11.7491966 61.5767329,12.1420684 L60.6049591,13.198765 C60.0032222,13.8531496 60.045386,14.8718846 60.6995263,15.474047 C61.0087271,15.7586581 61.3994444,15.8990556 61.7889571,15.8990556 C62.2232437,15.8990556 62.6563255,15.7241111 62.9737583,15.3790427 L64.7360019,13.4628889 C68.1352027,14.8734915 71.5030819,16.2342821 74.603924,17.428765 C70.0301618,18.6310812 60.7461072,18.1144829 48.6366803,15.908094 C47.0240175,15.6142436 45.3577466,15.9183376 43.945462,16.7649402 L30.1237856,25.0483889 C25.0051072,24.2098205 21.2360702,23.5327393 19.7599376,23.2629915 C17.8356647,20.7981026 15.2602632,18.8891795 12.3041832,17.7802607 L4.26897856,14.7660342 L4.73016959,7.43021795 Z M3.22311696,31.4205043 L4.05836062,18.126735 L11.1745965,20.7962949 C14.2489357,21.9496026 16.8201209,24.1660342 18.4147135,27.0372521 L22.9105731,35.1329017 L6.76045419,35.1329017 C5.77924366,35.1329017 4.86690058,34.7406325 4.19147758,34.0286026 C3.51625536,33.3163718 3.17252047,32.384406 3.22311696,31.4205043 Z M96.9750019,38.1396966 C96.7481209,38.5934274 96.3359201,38.9358846 95.843809,39.0786923 C92.0960546,40.1675256 78.5578791,43.7204444 61.7010156,43.7204444 L5.04358674,43.7204444 C4.98435673,43.7204444 4.93637037,43.6724402 4.93637037,43.613188 L4.93637037,38.3495897 C4.97190838,38.352 5.00784795,38.3532051 5.0439883,38.3532051 L25.6463977,38.3532051 C33.3187934,38.3532051 39.8379103,38.7878547 46.1419922,39.2082436 C52.4990799,39.6322479 59.0724074,40.0707137 66.8518187,40.0707137 C80.5925809,40.0707137 92.4078655,37.4250556 98.0981637,35.892735 L96.9750019,38.1396966 Z M99.5799181,32.1202821 C95.7568713,33.2569188 82.4313216,36.8504103 66.8516179,36.8504103 C66.6104815,36.8504103 66.3735614,36.8486026 66.1344327,36.8477991 L73.5524405,30.4284829 C74.0875185,29.965312 74.7822164,29.6662393 75.5088382,29.5860983 C88.6906296,28.1317094 95.5050936,25.6999615 97.6875692,24.7935043 C98.8655439,26.046235 99.5797173,27.7267863 99.5797173,29.5617949 L99.5797173,32.1202821 L99.5799181,32.1202821 Z" id="Shape"></path>
            </g>
        </g>
    </g>
</svg>