<?xml version="1.0" encoding="UTF-8"?>
<svg width="71px" height="46px" viewBox="0 0 71 46" version="1.1" xmlns="http://www.w3.org/2000/svg" xmlns:xlink="http://www.w3.org/1999/xlink">
    <!-- Generator: Sketch 49 (51002) - http://www.bohemiancoding.com/sketch -->
    <title>van</title>
    <desc>Created with Sketch.</desc>
    <defs></defs>
    <g id="Page-1" stroke="none" stroke-width="1" fill="none" fill-rule="evenodd">
        <g id="Desktop-HD" transform="translate(-284.000000, -1249.000000)" fill="#99EADA" fill-rule="nonzero">
            <g id="van" transform="translate(284.000000, 1249.000000)">
                <path d="M57.4107109,29.5989217 C52.9063711,29.5989217 49.2419668,33.2603554 49.2419668,37.7608735 C49.2419668,42.2605602 52.9065098,45.921994 57.4107109,45.921994 C61.9157441,45.921994 65.5795938,42.2605602 65.5795938,37.7608735 C65.5795938,33.2603554 61.9150508,29.5989217 57.4107109,29.5989217 Z M57.4107109,41.3444398 C55.4318633,41.3444398 53.8225762,39.7365181 53.8225762,37.7600422 C53.8225762,35.7828735 55.4318633,34.1749518 57.4107109,34.1749518 C59.3895586,34.1749518 60.9988457,35.7837048 60.9988457,37.7600422 C60.9989844,39.7363795 59.3895586,41.3444398 57.4107109,41.3444398 Z" id="Shape"></path>
                <path d="M45.6536934,0.0780060241 L2.29030469,0.0780060241 C1.02533984,0.0780060241 0,1.1024759 0,2.36650602 L0,37.607494 C0,38.8713855 1.02533984,39.8958554 2.29030469,39.8958554 L9.46671289,39.8958554 L9.46671289,35.3191325 L4.58060938,35.3191325 L4.58060938,4.65486747 L43.3633887,4.65486747 L43.3633887,37.607494 L47.943998,37.607494 L47.943998,2.36650602 C47.9441367,1.1024759 46.9187969,0.0780060241 45.6536934,0.0780060241 Z" id="Shape"></path>
                <rect id="Rectangle-path" x="20.6892891" y="35.3191325" width="30.8429824" height="4.57672289"></rect>
                <path d="M15.0397969,29.5989217 C10.535457,29.5989217 6.87091406,33.2603554 6.87091406,37.7608735 C6.87091406,42.2605602 10.535457,45.921994 15.0397969,45.921994 C19.5441367,45.921994 23.2086797,42.2605602 23.2086797,37.7608735 C23.208541,33.2603554 19.5441367,29.5989217 15.0397969,29.5989217 Z M15.0397969,41.3444398 C13.0609492,41.3444398 11.4516621,39.7365181 11.4516621,37.7600422 C11.4516621,35.7828735 13.0609492,34.1749518 15.0397969,34.1749518 C17.0186445,34.1749518 18.6279316,35.7837048 18.6279316,37.7600422 C18.6279316,39.7363795 17.0178125,41.3444398 15.0397969,41.3444398 Z" id="Shape"></path>
                <path d="M68.7096953,19.0715723 L45.6536934,19.0715723 L45.6536934,23.6482952 L66.419252,23.6482952 L66.419252,35.318994 L63.1364727,35.318994 L63.1364727,39.8957169 L68.7095566,39.8957169 C69.9745215,39.8957169 70.9998613,38.8720783 70.9998613,37.6073554 L70.9998613,21.3599337 C71,20.0960422 69.9746602,19.0715723 68.7096953,19.0715723 Z" id="Shape"></path>
                <path d="M61.7845605,9.57783735 C61.3822734,8.84710241 60.6126445,8.39250602 59.7774238,8.39250602 L45.6536934,8.39250602 L45.6536934,12.9692289 L58.4230156,12.9692289 L63.6487266,22.4629639 L67.6628613,20.2569036 L61.7845605,9.57783735 Z" id="Shape"></path>
            </g>
        </g>
    </g>
</svg>